<svg width="189" height="246" viewBox="0 0 189 246" fill="none" xmlns="http://www.w3.org/2000/svg">
<path d="M129.341 0H80.8205V81.7243H13.4146V99.1347H80.5826V189.564C80.5826 216.013 70.3076 227.572 47.5219 227.572C35.0111 227.572 22.2625 220.722 12.9865 206.499L0 219.01C11.274 237.372 30.159 245.744 48.0451 245.744C88.0035 245.744 101.466 221.245 101.466 191.324V97.0417H129.389C164.685 97.0417 188.946 81.3438 188.946 47.284C188.898 11.9875 164.876 0 129.341 0ZM126.915 80.3448H101.418V16.6493H126.915C154.601 16.6493 168.348 24.2604 168.348 47.284C168.301 70.0698 154.839 80.3448 126.915 80.3448Z" fill="url(#paint0_linear_113_236)"/>
<defs>
<linearGradient id="paint0_linear_113_236" x1="94.4254" y1="245.661" x2="94.4254" y2="-0.0122271" gradientUnits="userSpaceOnUse">
<stop stop-color="#000276"/>
<stop offset="0.3734" stop-color="#6A51AD"/>
<stop offset="0.6789" stop-color="#BA8CD6"/>
<stop offset="0.8941" stop-color="#ECB1EF"/>
<stop offset="1" stop-color="#FFBFF9"/>
</linearGradient>
</defs>
</svg>
