<svg width="63" height="63" viewBox="0 0 63 63" fill="none" xmlns="http://www.w3.org/2000/svg">
<circle cx="31.5" cy="31.5" r="31.5" fill="#FFBFF9"/>
<path d="M10.2056 40.6962C9.45744 39.9382 9.08337 38.9734 9.08337 37.8018C9.08337 36.6303 9.45744 35.6655 10.2056 34.9074L28.9769 15.8871C29.3849 15.4736 29.827 15.18 30.3031 15.0064C30.7792 14.8355 31.2893 14.75 31.8334 14.75C32.3775 14.75 32.9052 14.8534 33.4167 15.0601C33.9254 15.2669 34.3498 15.5425 34.6899 15.8871L53.4612 34.9074C54.2093 35.6655 54.5834 36.6303 54.5834 37.8018C54.5834 38.9734 54.2093 39.9382 53.4612 40.6962C52.713 41.4543 51.7609 41.8333 50.6047 41.8333C49.4485 41.8333 48.4963 41.4543 47.7482 40.6962L31.8334 24.5703L15.9186 40.6962C15.1704 41.4543 14.2183 41.8333 13.0621 41.8333C11.9059 41.8333 10.9537 41.4543 10.2056 40.6962Z" fill="white"/>
</svg>
